<svg xmlns="http://www.w3.org/2000/svg" width="12.001" height="11.118" viewBox="0 0 12.001 11.118"><g transform="translate(-231.887 -631.066)"><path d="M233.206,636.84v5a.35.35,0,0,0,.1.245.354.354,0,0,0,.246.1h2.794v-3.67a.345.345,0,0,1,.346-.347h2.387a.345.345,0,0,1,.346.347v3.67h2.795a.345.345,0,0,0,.346-.346v-5.005l-4.731-3.678Z" fill="#fff"/><path d="M243.616,635.292l-5.306-4.082a.7.7,0,0,0-.847,0l-2.842,2.186v-1.1h-1.389v2.172l-1.075.827a.694.694,0,0,0,.649,1.206l4.867-3.872a.257.257,0,0,1,.319,0l4.986,3.876a.692.692,0,0,0,.638-1.206Z" fill="#fff"/></g></svg>