<svg xmlns="http://www.w3.org/2000/svg" xmlns:xlink="http://www.w3.org/1999/xlink" width="209.302" height="54.825" viewBox="0 0 209.302 54.825"><defs><linearGradient id="a" x1="-0.054" y1="0.649" x2="0.997" y2="0.399" gradientUnits="objectBoundingBox"><stop offset="0.226" stop-color="#1b1e1e"/><stop offset="0.268" stop-color="#141819" stop-opacity="0.835"/><stop offset="0.404" stop-color="#03080c" stop-opacity="0.318"/><stop offset="0.487" stop-color="#010305" stop-opacity="0"/></linearGradient></defs><g transform="translate(-3.47 -5.58)"><g transform="translate(35.046 5.58)"><path d="M77.132,12.307H72.556l-.906,2.109H70.4L74.254,5.74H75.5l3.845,8.676H78.052Zm-.462-1.076L74.835,7.019l-1.812,4.213Z" transform="translate(-70.4 -5.665)" fill="#27343d"/><path d="M94.08,13.425a2.305,2.305,0,0,0,2.467-2.552V5.74h1.189v5.133a3.668,3.668,0,0,1-7.336,0V5.74h1.189v5.133A2.323,2.323,0,0,0,94.08,13.425Z" transform="translate(-80.965 -5.665)" fill="#27343d"/><path d="M115.969,5.74V6.83h-2.8v7.586h-1.189V6.83H109.19V5.74Z" transform="translate(-90.89 -5.665)" fill="#27343d"/><path d="M133.364,9.982a4.565,4.565,0,1,1-4.562-4.4A4.466,4.466,0,0,1,133.364,9.982Zm-7.921,0a3.354,3.354,0,1,0,6.709,0,3.354,3.354,0,0,0-6.709,0Z" transform="translate(-98.84 -5.58)" fill="#27343d"/><path d="M148.225,5.74l3.175,6.1,3.147-6.1h1.425v8.676h-1.113l-.014-6.93-3.085,6.01h-.731l-3.114-6.01v6.93h-1.1V5.74Z" transform="translate(-110.762 -5.665)" fill="#27343d"/><path d="M178.584,9.982a4.565,4.565,0,1,1-4.562-4.4A4.466,4.466,0,0,1,178.584,9.982Zm-7.921,0a3.354,3.354,0,1,0,6.709,0,3.354,3.354,0,0,0-6.709,0Z" transform="translate(-122.726 -5.58)" fill="#27343d"/><path d="M196.229,5.74V6.83h-2.8v7.586h-1.189V6.83H189.45V5.74Z" transform="translate(-133.285 -5.665)" fill="#27343d"/><path d="M208.249,5.74v8.676H207.06V5.74Z" transform="translate(-142.587 -5.665)" fill="#27343d"/><path d="M214.079,5.74l2.864,7.35,2.864-7.35h1.25l-3.519,8.676H216.3L212.8,5.74Z" transform="translate(-145.619 -5.665)" fill="#27343d"/><path d="M239.555,5.74V6.82h-4.836V9.5h4.326v1.08h-4.326v2.765H239.7v1.08H233.53V5.74Z" transform="translate(-156.57 -5.665)" fill="#27343d"/></g><g transform="translate(3.47 5.58)"><path d="M97.069,50.1h3.383V60.336A17.8,17.8,0,0,1,89.9,64,14.286,14.286,0,0,1,75.33,49.744c0-7.921,6.449-14.134,14.771-14.134a16.113,16.113,0,0,1,10.469,3.864l-2.189,2.788A12.323,12.323,0,0,0,90.1,39a10.788,10.788,0,1,0,.042,21.574,12.725,12.725,0,0,0,6.926-2.189V50.1Z" transform="translate(-41.428 -21.443)" fill="#27343d"/><path d="M158.362,35.61V60.468H170.77V64h-16.3V35.61Z" transform="translate(-83.232 -21.443)" fill="#27343d"/><path d="M303.235,45.182c0,6.326-4.057,9.973-11.11,9.973h-7.053V64H281.18V35.61h10.945C299.178,35.61,303.235,39.1,303.235,45.182ZM299.5,45.3c0-4.095-2.755-6.161-7.544-6.161l-6.893.042v12.45h6.893C296.744,51.627,299.5,49.523,299.5,45.3Z" transform="translate(-150.164 -21.443)" fill="#27343d"/><path d="M422.425,45.182c0,6.326-4.057,9.973-11.11,9.973h-7.053V64H400.37V35.61h10.945C418.368,35.61,422.425,39.1,422.425,45.182Zm-3.732.123c0-4.095-2.755-6.161-7.544-6.161l-6.893.042v12.45h6.893C415.939,51.627,418.694,49.523,418.694,45.3Z" transform="translate(-213.123 -21.443)" fill="#27343d"/><path d="M210.052,58.186a10.523,10.523,0,0,1-3.317,1.906,11.6,11.6,0,0,1-4.015.717,9.6,9.6,0,0,1-7.185-3.01,10.684,10.684,0,0,1-2.93-6.487h14.748l-.047-3.005H192.616a10.653,10.653,0,0,1,2.925-6.463,9.6,9.6,0,0,1,7.185-3.01,11.585,11.585,0,0,1,4.015.717,10.471,10.471,0,0,1,3.317,1.906,16.3,16.3,0,0,1,2.958,3.836l2.93-1.538a15.949,15.949,0,0,0-3.331-4.567,13.172,13.172,0,0,0-4.251-2.642,14.836,14.836,0,0,0-5.345-.906q-6.61,0-10.341,4.331a14.605,14.605,0,0,0-3.727,9.794v.127a14.605,14.605,0,0,0,3.727,9.794q3.729,4.331,10.341,4.331a14.855,14.855,0,0,0,5.345-.906,13.254,13.254,0,0,0,4.251-2.642,16.082,16.082,0,0,0,3.331-4.567l-2.93-1.538A16.472,16.472,0,0,1,210.052,58.186Z" transform="translate(-101.445 -21.458)" fill="#27343d"/><path d="M355.513,58.181a10.615,10.615,0,0,1-3.317,1.906,11.585,11.585,0,0,1-4.015.717A9.6,9.6,0,0,1,341,57.794a10.652,10.652,0,0,1-2.925-6.487h14.743l-.047-3.005H338.076A10.653,10.653,0,0,1,341,41.839a9.6,9.6,0,0,1,7.185-3.01,11.6,11.6,0,0,1,4.015.717,10.471,10.471,0,0,1,3.317,1.906,16.256,16.256,0,0,1,2.958,3.831l2.93-1.538a15.95,15.95,0,0,0-3.331-4.567,13.254,13.254,0,0,0-4.251-2.642,14.828,14.828,0,0,0-5.34-.906q-6.61,0-10.337,4.331a14.605,14.605,0,0,0-3.727,9.794v.127a14.605,14.605,0,0,0,3.727,9.794q3.729,4.331,10.337,4.331a14.81,14.81,0,0,0,5.34-.906,13.254,13.254,0,0,0,4.251-2.642,16.015,16.015,0,0,0,3.331-4.567l-2.93-1.538A16.336,16.336,0,0,1,355.513,58.181Z" transform="translate(-178.286 -21.453)" fill="#27343d"/><g transform="translate(63.265 14.167)"><path d="M139.391,42.871a1.822,1.822,0,0,1-1.821-1.821V66.87h3.637V41.05A1.818,1.818,0,0,1,139.391,42.871Z" transform="translate(-137.57 -38.484)" fill="#27343d"/><path d="M137.57,35.61v2.566a1.821,1.821,0,0,1,3.642,0V35.61Z" transform="translate(-137.57 -35.61)" fill="#27343d"/></g><path d="M20.2,41.6H34.168l-10.2-21.669-4.746,10.1-1.944,4.109-6.633,14H3.47L23.577,5.58H24.62L44.467,48.134H17.274" transform="translate(-3.47 -5.58)" fill="#00a7ee"/></g><path d="M83.174,66.879a10.69,10.69,0,0,1-3.949-8.355c0-.259.009-.486.024-.745l-2.4-5.539a13.554,13.554,0,0,0-1.458,5.4l5.737,12.3h0l.646.462a14.577,14.577,0,0,0,3.637,1.7Z" transform="translate(-37.99 -24.647)" opacity="0.5" fill="url(#a)"/><g transform="translate(162.585 51.672)"><path d="M346.552,103.285v.769h-4.958v3.109h4.439v.769h-4.439V111.2h5.123v.769H340.74v-8.69h5.812Z" transform="translate(-340.74 -103.28)" fill="#27343d"/><path d="M360.945,111.248a2.539,2.539,0,0,0,2.722-2.821V103.28h.854v5.147a3.581,3.581,0,1,1-7.161,0V103.28h.854v5.147A2.546,2.546,0,0,0,360.945,111.248Z" transform="translate(-349.519 -103.28)" fill="#27343d"/><path d="M383.1,111.991l-1.873-2.831c-.2.014-.4.024-.609.024h-2.382v2.807h-.859V103.31h3.241c2.161,0,3.4,1.043,3.4,2.883a2.7,2.7,0,0,1-2.01,2.807l2.085,2.991Zm-2.482-3.576c1.637,0,2.581-.769,2.581-2.2,0-1.4-.943-2.137-2.581-2.137h-2.382v4.331h2.382Z" transform="translate(-360.094 -103.296)" fill="#27343d"/><path d="M403.487,107.631a4.456,4.456,0,1,1-4.454-4.321A4.391,4.391,0,0,1,403.487,107.631Zm-8.058,0a3.6,3.6,0,1,0,3.614-3.567A3.617,3.617,0,0,0,395.429,107.631Z" transform="translate(-369.18 -103.296)" fill="#27343d"/><path d="M423.461,106.193c0,1.9-1.231,2.991-3.378,2.991h-2.345v2.807h-.859V103.31h3.2C422.23,103.31,423.461,104.353,423.461,106.193Zm-.821.024c0-1.4-.944-2.137-2.595-2.137h-2.312v4.331h2.312C421.7,108.415,422.64,107.641,422.64,106.216Z" transform="translate(-380.959 -103.296)" fill="#27343d"/><path d="M440.272,103.3v.769h-4.954v3.1h4.435v.769h-4.435v3.265h5.114v.769H434.46V103.3h5.812Z" transform="translate(-390.245 -103.291)" fill="#27343d"/></g></g></svg>